<svg width="9" height="14" viewBox="0 0 9 14" fill="none" xmlns="http://www.w3.org/2000/svg">
<path d="M2.50746 6.97291C2.60299 7.08429 2.65075 7.14618 2.69851 7.19568C4.14328 8.69321 5.57612 10.1907 7.0209 11.6759C7.2597 11.9234 7.51045 12.1586 7.73731 12.4185C8.16716 12.9011 8.04776 13.619 7.49851 13.9036C7.16418 14.0769 6.77015 14.015 6.48358 13.7304C6.2209 13.4704 5.97015 13.2105 5.7194 12.9506C4.1194 11.2922 2.50746 9.63381 0.907463 7.97539C0.608955 7.66598 0.310448 7.3442 0 6.99766C0.0358209 6.94816 0.0955224 6.8739 0.155224 6.81202C2.23284 4.65855 4.32239 2.50507 6.4 0.339228C6.75821 -0.0320602 7.16418 -0.0568128 7.45075 0.0669499C8.02388 0.314475 8.19104 1.06943 7.76119 1.5521C7.48657 1.86151 7.2 2.13379 6.92537 2.43082C5.52836 3.89122 4.13134 5.32686 2.74627 6.77489C2.67463 6.83677 2.60299 6.88627 2.50746 6.97291Z" fill="#E6514A"/>
</svg>
