<svg width="9" height="14" viewBox="0 0 9 14" fill="none" xmlns="http://www.w3.org/2000/svg">
<path d="M5.49559 7.02709C5.40007 6.91571 5.35231 6.85382 5.30454 6.80432C3.85977 5.30679 2.42693 3.80926 0.982157 2.32411C0.743351 2.07658 0.492604 1.84143 0.265739 1.58153C-0.164112 1.09886 -0.0447081 0.381034 0.504545 0.0963805C0.838874 -0.0768878 1.2329 -0.0150057 1.51947 0.269648C1.78216 0.52955 2.0329 0.789452 2.28365 1.04935C3.88365 2.70777 5.49559 4.36619 7.09559 6.02461C7.3941 6.33402 7.6926 6.6558 8.00305 7.00234C7.96723 7.05184 7.90753 7.1261 7.84783 7.18798C5.77022 9.34145 3.68066 11.4949 1.60305 13.6608C1.24484 14.0321 0.838872 14.0568 0.552305 13.933C-0.0208292 13.6855 -0.187993 12.9306 0.241858 12.4479C0.516484 12.1385 0.803052 11.8662 1.07768 11.5692C2.47469 10.1088 3.87171 8.67314 5.25678 7.22511C5.32843 7.16323 5.40007 7.11373 5.49559 7.02709Z" fill="#E6514A"/>
</svg>
