<svg width="16" height="16" viewBox="0 0 16 16" fill="none" xmlns="http://www.w3.org/2000/svg">
<g clip-path="url(#clip0_2118_698)">
<path d="M13.5401 9.18102C14.0497 9.67853 14.5875 10.1466 15.0445 10.6943C15.2464 10.9377 15.4375 11.1888 15.5838 11.4713C15.791 11.8728 15.6033 12.3146 15.2433 12.3386L13.0053 12.3375C12.4281 12.3854 11.9677 12.1531 11.5805 11.7584C11.2707 11.4428 10.9837 11.1069 10.6858 10.7807C10.5637 10.6473 10.4358 10.5218 10.2831 10.4227C9.97758 10.2243 9.71239 10.2851 9.53779 10.6037C9.35998 10.9278 9.31964 11.2867 9.3022 11.6479C9.27823 12.1749 9.11895 12.3134 8.58957 12.3375C7.45828 12.3909 6.38462 12.2197 5.38721 11.649C4.50789 11.1459 3.82601 10.4356 3.23248 9.63156C2.07687 8.06589 1.19193 6.34541 0.396615 4.57672C0.217582 4.17825 0.348521 3.96434 0.78818 3.95674C1.51828 3.94256 2.24825 3.94359 2.97919 3.95571C3.27591 3.96006 3.47235 4.13025 3.58695 4.41059C3.98195 5.38185 4.46529 6.30591 5.07195 7.16242C5.23352 7.39045 5.39824 7.61848 5.63286 7.77899C5.8924 7.9567 6.08999 7.8978 6.21209 7.6087C6.28956 7.42539 6.32346 7.22795 6.34093 7.03161C6.39878 6.35613 6.4064 5.68179 6.30496 5.00872C6.24268 4.58862 6.00609 4.31672 5.58686 4.23718C5.37296 4.19665 5.4048 4.11706 5.50836 3.99496C5.68824 3.7844 5.85746 3.65331 6.19468 3.65331H8.72391C9.12207 3.7319 9.21051 3.91078 9.26501 4.3114L9.26717 7.12089C9.26282 7.27601 9.34464 7.73627 9.62401 7.83892C9.84761 7.91202 9.99498 7.73314 10.1291 7.59136C10.7347 6.94864 11.1669 6.18907 11.553 5.40253C11.7244 5.05669 11.8717 4.69753 12.0145 4.33868C12.1203 4.0724 12.2863 3.94134 12.5862 3.94718L15.0205 3.94934C15.0927 3.94934 15.1657 3.9504 15.2356 3.96237C15.6458 4.03228 15.7582 4.20875 15.6315 4.60928C15.432 5.23772 15.0435 5.76141 14.6638 6.28754C14.2579 6.84923 13.8237 7.39173 13.4211 7.9568C13.0513 8.47277 13.0806 8.7329 13.5401 9.18102Z" fill="#23283B"/>
<path d="M8.21037 12.6654C7.07511 12.6654 6.09654 12.4221 5.22885 11.9257C4.403 11.4532 3.68716 10.7844 2.97596 9.82088C1.96596 8.45231 1.08077 6.87527 0.105884 4.70748C-0.0304913 4.40391 -0.0351476 4.14844 0.0920094 3.94813C0.218979 3.74813 0.451324 3.64384 0.782607 3.63813C1.48499 3.62447 2.20546 3.62416 2.98446 3.63713C3.39334 3.64313 3.71228 3.87497 3.88194 4.29007C4.29391 5.30307 4.76819 6.18223 5.33198 6.97827C5.47313 7.17746 5.6191 7.38352 5.81279 7.51602L5.81373 7.51665C5.85032 7.54165 5.90057 7.52687 5.91789 7.48612L5.91845 7.48477C5.97223 7.35759 6.00551 7.20465 6.02342 7.00343C6.08764 6.25395 6.07695 5.63492 5.98973 5.05626C5.94557 4.75841 5.80307 4.60263 5.52745 4.55035C5.44917 4.53554 5.21082 4.49038 5.13082 4.26416C5.05176 4.0406 5.20691 3.85772 5.26535 3.78885C5.46717 3.55259 5.71885 3.33469 6.19467 3.33469H8.7239C8.7435 3.33469 8.76334 3.33637 8.78259 3.34012C9.41966 3.46466 9.52625 3.8671 9.58085 4.26854C9.58275 4.28269 9.58375 4.29697 9.58375 4.31125L9.58591 7.12074C9.58591 7.1238 9.58588 7.12687 9.58578 7.12996C9.58416 7.1883 9.59997 7.27143 9.62403 7.34774C9.65747 7.45365 9.79319 7.48387 9.86913 7.40277C9.86953 7.40234 9.86997 7.40187 9.87041 7.40143L9.89766 7.37243C10.5109 6.72158 10.934 5.94042 11.267 5.2622C11.441 4.91088 11.5912 4.54054 11.7185 4.22097C11.8774 3.82085 12.169 3.62156 12.5894 3.62859L15.0208 3.63075C15.1046 3.63075 15.1946 3.63209 15.2894 3.64834C15.4836 3.68144 15.7592 3.75363 15.9078 3.99716C16.0564 4.24066 15.9948 4.51804 15.9354 4.70548C15.7278 5.35923 15.3402 5.89567 14.9653 6.41452L14.9222 6.47421C14.7301 6.74005 14.5297 7.0044 14.3358 7.26002C14.1177 7.54759 13.8922 7.84496 13.6807 8.14184C13.5392 8.33922 13.4777 8.47275 13.4867 8.56275C13.4959 8.65431 13.5835 8.77828 13.7626 8.95294C13.7626 8.95297 13.7627 8.953 13.7627 8.95303C13.8958 9.083 14.034 9.21391 14.1677 9.3405C14.548 9.70066 14.9412 10.0731 15.2892 10.4902C15.4809 10.7212 15.6989 11.0005 15.8668 11.3248C16.0278 11.6369 16.0302 11.9888 15.8733 12.2667C15.743 12.4975 15.521 12.6396 15.2644 12.6566C15.2573 12.6571 15.2503 12.6573 15.2432 12.6573C15.2432 12.6573 15.2431 12.6573 15.2431 12.6573L13.0179 12.6563C12.3986 12.7039 11.8387 12.4768 11.3529 11.9817C11.1382 11.763 10.9332 11.5336 10.735 11.3118C10.6419 11.2076 10.5456 11.0999 10.4504 10.9956C10.3564 10.893 10.2421 10.7762 10.1094 10.69C10.0368 10.6429 9.97154 10.6203 9.93472 10.6295C9.90007 10.6382 9.85616 10.6858 9.81722 10.7569C9.678 11.0106 9.63788 11.3027 9.62044 11.6632C9.58938 12.3454 9.30438 12.624 8.60397 12.6559C8.47084 12.6622 8.3395 12.6654 8.21037 12.6654ZM0.638919 4.29541C0.642013 4.32113 0.652731 4.36916 0.687325 4.44613C1.6428 6.57083 2.50684 8.11172 3.4889 9.44232C4.14563 10.3321 4.79913 10.9454 5.54545 11.3724C6.40336 11.8632 7.39405 12.0746 8.57456 12.0191C8.82022 12.0079 8.89384 11.9711 8.91587 11.9502C8.93272 11.9342 8.97297 11.8714 8.98381 11.6333C9.00262 11.2442 9.04887 10.8323 9.25834 10.4504C9.42006 10.1553 9.63072 10.0487 9.77897 10.0114C9.92875 9.97357 10.168 9.96794 10.4566 10.1553C10.6494 10.2805 10.7994 10.4328 10.9208 10.5654C11.0186 10.6725 11.1161 10.7816 11.2103 10.887C11.4036 11.1033 11.6035 11.3269 11.8079 11.5351C12.1682 11.9023 12.5407 12.0564 12.979 12.0199C12.9877 12.0191 12.9965 12.0188 13.0052 12.0188C13.0053 12.0188 13.0054 12.0188 13.0055 12.0188L15.2302 12.0198C15.2497 12.0175 15.2875 12.0075 15.3182 11.9532C15.3557 11.8867 15.3736 11.7589 15.3005 11.6173C15.1606 11.3471 14.9686 11.1019 14.7992 10.8977C14.4757 10.5099 14.1132 10.1666 13.7294 9.8031C13.594 9.67491 13.4541 9.54235 13.3175 9.40907C12.7398 8.84556 12.6991 8.4169 13.1621 7.77106C13.3786 7.46715 13.607 7.16596 13.8279 6.87468C14.0196 6.62189 14.2178 6.36055 14.4055 6.1008L14.4487 6.04102C14.8099 5.54095 15.1512 5.06863 15.3278 4.51272C15.3629 4.40185 15.3633 4.34872 15.3616 4.33025C15.3459 4.32032 15.2981 4.29625 15.1821 4.27647C15.1363 4.26863 15.0772 4.26797 15.0205 4.26797L12.586 4.26582C12.584 4.26582 12.5821 4.26582 12.5801 4.26575C12.4368 4.26272 12.3767 4.2901 12.3107 4.45632C12.1788 4.78776 12.0228 5.17226 11.8386 5.54398C11.4852 6.26383 11.0329 7.0969 10.3611 7.80987L10.3357 7.83693C10.1929 7.9894 9.92697 8.27318 9.525 8.14181C9.52135 8.14059 9.51769 8.13934 9.51406 8.13803C9.07253 7.97578 8.94284 7.38396 8.94844 7.11708L8.94631 4.3335C8.93215 4.2341 8.90906 4.10691 8.86862 4.0531C8.85909 4.04044 8.83128 4.00344 8.69084 3.97194H6.19473C6.09295 3.97194 6.01961 3.98606 5.95454 4.01994C6.32089 4.18613 6.55345 4.51147 6.62024 4.96188C6.71499 5.59054 6.72717 6.25708 6.65852 7.05871C6.63449 7.3289 6.58595 7.54274 6.50567 7.73265C6.38123 8.02728 6.19648 8.13568 6.06336 8.17475C5.93029 8.21375 5.71642 8.22237 5.45279 8.04187C5.16504 7.84496 4.96919 7.56862 4.81188 7.34655C4.21941 6.51005 3.72219 5.58895 3.29172 4.53054C3.20059 4.30757 3.08025 4.27585 2.97456 4.27429C2.20258 4.26141 1.48964 4.26175 0.794389 4.27525C0.710888 4.27688 0.663294 4.28741 0.638919 4.29541Z" fill="#23283B"/>
<path d="M2.04026 5.76362C1.92385 5.76362 1.81163 5.69962 1.75554 5.58862C1.70785 5.49428 1.6606 5.39965 1.61376 5.30484C1.53579 5.14702 1.60054 4.95586 1.75835 4.87793C1.91626 4.79993 2.10729 4.86474 2.18526 5.02252C2.23123 5.11559 2.27764 5.20846 2.32445 5.30109C2.40382 5.45818 2.34086 5.64987 2.18376 5.72931C2.13767 5.75259 2.08857 5.76362 2.04026 5.76362Z" fill="#23283B"/>
<path d="M4.06742 9.11559C3.9697 9.11559 3.87323 9.07081 3.81073 8.98612C3.27142 8.2554 2.76776 7.46336 2.271 6.5647C2.18585 6.41067 2.24172 6.21673 2.39575 6.13158C2.54979 6.04645 2.74373 6.10226 2.82888 6.25633C3.31201 7.13036 3.80095 7.89949 4.32358 8.60756C4.42808 8.74918 4.39802 8.94874 4.25642 9.05324C4.19951 9.09537 4.13317 9.11559 4.06742 9.11559Z" fill="#23283B"/>
</g>
<defs>
<clipPath id="clip0_2118_698">
<rect width="16" height="16" fill="white"/>
</clipPath>
</defs>
</svg>
