<svg width="15" height="11" viewBox="0 0 15 11" fill="none" xmlns="http://www.w3.org/2000/svg">
<path d="M14.6909 1.64337C14.5181 1.00076 14.0114 0.494202 13.3689 0.321167C12.1951 0 7.49982 0 7.49982 0C7.49982 0 2.80472 0 1.63092 0.30899C1.00076 0.481842 0.48175 1.00085 0.308899 1.64337C0 2.81708 0 5.25119 0 5.25119C0 5.25119 0 7.69757 0.308899 8.85901C0.481934 9.50152 0.988403 10.0081 1.63101 10.1811C2.81708 10.5024 7.5 10.5024 7.5 10.5024C7.5 10.5024 12.1951 10.5024 13.3689 10.1934C14.0115 10.0204 14.5181 9.51388 14.6911 8.87137C14.9999 7.69757 14.9999 5.26355 14.9999 5.26355C14.9999 5.26355 15.0123 2.81708 14.6909 1.64337ZM6.00494 7.49991V3.00247L9.9093 5.25119L6.00494 7.49991Z" fill="white"/>
</svg>
