<svg width="100" height="100" viewBox="0 0 100 100" fill="none" xmlns="http://www.w3.org/2000/svg">
<circle opacity="0.6" cx="50" cy="50" r="49" fill="#DEDEFF" fill-opacity="0.4" stroke="#3035C4" stroke-width="2"/>
<g clip-path="url(#clip0_2121_80)">
<path d="M52.3418 33.2696H46.5455V26.4648H47.7663C48.1708 26.4648 48.4988 26.1369 48.4988 25.7324C48.4988 25.3279 48.1708 25 47.7663 25H32.9976C32.5931 25 32.265 25.3279 32.265 25.7324C32.265 26.1369 32.593 26.4648 32.9976 26.4648H34.2184V33.2696H28.4221C26.5351 33.2696 25 34.8046 25 36.6914V68.4221C25 70.1418 26.2753 71.5692 27.9299 71.8085V72.8027C27.9299 74.0144 28.9156 75 30.1273 75C31.3391 75 32.3248 74.0144 32.3248 72.8027V71.8438H48.4392V72.8027C48.4392 74.0144 49.4249 75 50.6366 75C51.8482 75 52.8341 74.0144 52.8341 72.8027V71.8085C54.4887 71.5691 55.764 70.1418 55.764 68.4221V42.2671C55.764 41.8626 55.436 41.5347 55.0314 41.5347C54.6269 41.5347 54.2989 41.8626 54.2989 42.2671V68.4221C54.2989 69.5012 53.421 70.379 52.3419 70.379H28.4221C27.343 70.379 26.465 69.5012 26.465 68.4221V36.6914C26.465 35.6123 27.343 34.7345 28.4221 34.7345H52.3418C53.421 34.7345 54.2988 35.6123 54.2988 36.6914V38.8384C54.2988 39.2429 54.6268 39.5708 55.0313 39.5708C55.4359 39.5708 55.7639 39.2429 55.7639 38.8384V36.6914C55.7638 34.8046 54.2287 33.2696 52.3418 33.2696ZM51.3689 71.8438V72.8027C51.3689 73.2066 51.0403 73.5352 50.6364 73.5352C50.2325 73.5352 49.9039 73.2066 49.9039 72.8027V71.8438H51.3689ZM30.8598 71.8438V72.8027C30.8598 73.2066 30.5312 73.5352 30.1272 73.5352C29.7233 73.5352 29.3948 73.2066 29.3948 72.8027V71.8438H30.8598ZM35.6833 26.4648H45.0806V33.2696H35.6833V26.4648Z" fill="#3035C4"/>
<path fill-rule="evenodd" clip-rule="evenodd" d="M32.015 25.7324C32.015 25.1898 32.455 24.75 32.9976 24.75H47.7663C48.3088 24.75 48.7488 25.1898 48.7488 25.7324C48.7488 26.275 48.3088 26.7148 47.7663 26.7148H46.7955V33.0196H52.3418C54.3668 33.0196 56.0138 34.6665 56.0139 36.6914V38.8384C56.0139 39.381 55.574 39.8208 55.0313 39.8208C54.4887 39.8208 54.0488 39.381 54.0488 38.8384V36.6914C54.0488 35.7504 53.2829 34.9845 52.3418 34.9845H28.4221C27.481 34.9845 26.715 35.7504 26.715 36.6914V68.4221C26.715 69.3631 27.481 70.129 28.4221 70.129H52.3419C53.2829 70.129 54.0489 69.3631 54.0489 68.4221V42.2671C54.0489 41.7245 54.4888 41.2847 55.0314 41.2847C55.5741 41.2847 56.014 41.7245 56.014 42.2671V68.4221C56.014 70.1931 54.7544 71.6742 53.0841 72.0184V72.8027C53.0841 74.1525 51.9863 75.25 50.6366 75.25C49.2869 75.25 48.1892 74.1524 48.1892 72.8027V72.0938H32.5748V72.8027C32.5748 74.1524 31.4771 75.25 30.1273 75.25C28.7776 75.25 27.6799 74.1524 27.6799 72.8027V72.0184C26.0096 71.6743 24.75 70.193 24.75 68.4221V36.6914C24.75 34.6665 26.397 33.0196 28.4221 33.0196H33.9684V26.7148H32.9976C32.4549 26.7148 32.015 26.275 32.015 25.7324ZM32.9976 25.25C32.7311 25.25 32.515 25.466 32.515 25.7324C32.515 25.9988 32.731 26.2148 32.9976 26.2148H34.4684V33.5196H28.4221C26.6731 33.5196 25.25 34.9427 25.25 36.6914V68.4221C25.25 70.0156 26.4321 71.3393 27.9657 71.5611L28.1799 71.592V72.8027C28.1799 73.8763 29.0537 74.75 30.1273 74.75C31.201 74.75 32.0748 73.8763 32.0748 72.8027V71.5938H48.6892V72.8027C48.6892 73.8763 49.563 74.75 50.6366 74.75C51.7102 74.75 52.5841 73.8763 52.5841 72.8027V71.5921L52.7983 71.5611C54.3319 71.3392 55.514 70.0156 55.514 68.4221V42.2671C55.514 42.0007 55.298 41.7847 55.0314 41.7847C54.7649 41.7847 54.5489 42.0007 54.5489 42.2671V68.4221C54.5489 69.6393 53.559 70.629 52.3419 70.629H28.4221C27.2049 70.629 26.215 69.6393 26.215 68.4221V36.6914C26.215 35.4742 27.2049 34.4845 28.4221 34.4845H52.3418C53.5591 34.4845 54.5488 35.4742 54.5488 36.6914V38.8384C54.5488 39.1048 54.7648 39.3208 55.0313 39.3208C55.2979 39.3208 55.5139 39.1048 55.5139 38.8384V36.6914C55.5138 34.9427 54.0907 33.5196 52.3418 33.5196H46.2955V26.2148H47.7663C48.0328 26.2148 48.2488 25.9988 48.2488 25.7324C48.2488 25.466 48.0328 25.25 47.7663 25.25H32.9976ZM35.4333 26.2148H45.3306V33.5196H35.4333V26.2148ZM35.9333 26.7148V33.0196H44.8306V26.7148H35.9333ZM29.1448 71.5938H31.1098V72.8027C31.1098 73.3448 30.6692 73.7852 30.1272 73.7852C29.5853 73.7852 29.1448 73.3447 29.1448 72.8027V71.5938ZM29.6448 72.0938V72.8027C29.6448 73.0686 29.8614 73.2852 30.1272 73.2852C30.3931 73.2852 30.6098 73.0685 30.6098 72.8027V72.0938H29.6448ZM49.6539 71.5938H51.6189V72.8027C51.6189 73.3448 51.1784 73.7852 50.6364 73.7852C50.0945 73.7852 49.6539 73.3448 49.6539 72.8027V71.5938ZM50.1539 72.0938V72.8027C50.1539 73.0685 50.3705 73.2852 50.6364 73.2852C50.9023 73.2852 51.1189 73.0685 51.1189 72.8027V72.0938H50.1539Z" fill="#3035C4"/>
<path d="M34.9394 68.9141H52.1015C52.506 68.9141 52.834 68.5861 52.834 68.1816V51.873C52.834 51.4686 52.506 51.1406 52.1015 51.1406H28.6624C28.2579 51.1406 27.9299 51.4686 27.9299 51.873V68.1816C27.9299 68.5861 28.2578 68.9141 28.6624 68.9141H31.5923C31.9968 68.9141 32.3248 68.5861 32.3248 68.1816C32.3248 67.7772 31.9969 67.4492 31.5923 67.4492H29.3948V52.6055H51.3689V67.4492H34.9394C34.5349 67.4492 34.2069 67.7772 34.2069 68.1816C34.2069 68.5861 34.5349 68.9141 34.9394 68.9141Z" fill="#3035C4"/>
<path fill-rule="evenodd" clip-rule="evenodd" d="M27.6799 51.873C27.6799 51.3304 28.1199 50.8906 28.6624 50.8906H52.1015C52.6441 50.8906 53.084 51.3305 53.084 51.873V68.1816C53.084 68.7242 52.6441 69.1641 52.1015 69.1641H34.9394C34.3969 69.1641 33.9569 68.7243 33.9569 68.1816C33.9569 67.639 34.3969 67.1992 34.9394 67.1992H51.1189V52.8555H29.6448V67.1992H31.5923C32.1349 67.1992 32.5748 67.6391 32.5748 68.1816C32.5748 68.7243 32.1348 69.1641 31.5923 69.1641H28.6624C28.1198 69.1641 27.6799 68.7242 27.6799 68.1816V51.873ZM28.6624 51.3906C28.3959 51.3906 28.1799 51.6067 28.1799 51.873V68.1816C28.1799 68.448 28.3958 68.6641 28.6624 68.6641H31.5923C31.8587 68.6641 32.0748 68.448 32.0748 68.1816C32.0748 67.9152 31.8588 67.6992 31.5923 67.6992H29.1448V52.3555H51.6189V67.6992H34.9394C34.673 67.6992 34.4569 67.9153 34.4569 68.1816C34.4569 68.448 34.673 68.6641 34.9394 68.6641H52.1015C52.368 68.6641 52.584 68.448 52.584 68.1816V51.873C52.584 51.6066 52.368 51.3906 52.1015 51.3906H28.6624Z" fill="#3035C4"/>
<path d="M46.8277 58.6109C47.2322 58.6109 47.5602 58.283 47.5602 57.8785V55.4995H49.1717C49.5762 55.4995 49.9042 55.1716 49.9042 54.7671C49.9042 54.3626 49.5762 54.0347 49.1717 54.0347H31.5923C31.1878 54.0347 30.8597 54.3626 30.8597 54.7671C30.8597 55.1716 31.1877 55.4995 31.5923 55.4995H46.0952V57.8785C46.0952 58.283 46.4231 58.6109 46.8277 58.6109Z" fill="#E6514A"/>
<path fill-rule="evenodd" clip-rule="evenodd" d="M30.6097 54.7671C30.6097 54.2245 31.0497 53.7847 31.5923 53.7847H49.1717C49.7143 53.7847 50.1542 54.2245 50.1542 54.7671C50.1542 55.3097 49.7143 55.7495 49.1717 55.7495H47.8102V57.8785C47.8102 58.4211 47.3702 58.8609 46.8277 58.8609C46.2851 58.8609 45.8452 58.4211 45.8452 57.8785V55.7495H31.5923C31.0496 55.7495 30.6097 55.3097 30.6097 54.7671ZM31.5923 54.2847C31.3258 54.2847 31.1097 54.5007 31.1097 54.7671C31.1097 55.0335 31.3257 55.2495 31.5923 55.2495H46.3452V57.8785C46.3452 58.1449 46.5612 58.3609 46.8277 58.3609C47.0942 58.3609 47.3102 58.1449 47.3102 57.8785V55.2495H49.1717C49.4382 55.2495 49.6542 55.0335 49.6542 54.7671C49.6542 54.5007 49.4382 54.2847 49.1717 54.2847H31.5923Z" fill="#E6514A"/>
<path d="M45.265 44.9814C45.6695 44.9814 45.9976 44.6535 45.9976 44.249V41.3193C45.9976 40.9148 45.6696 40.5869 45.265 40.5869H35.4987C35.0942 40.5869 34.7662 40.9148 34.7662 41.3193V44.249C34.7662 44.6535 35.0941 44.9814 35.4987 44.9814H45.265ZM36.2312 42.0518H44.5326V43.5166H36.2312V42.0518Z" fill="#E6514A"/>
<path fill-rule="evenodd" clip-rule="evenodd" d="M34.5162 41.3193C34.5162 40.7767 34.9562 40.3369 35.4987 40.3369H45.265C45.8077 40.3369 46.2476 40.7768 46.2476 41.3193V44.249C46.2476 44.7916 45.8076 45.2314 45.265 45.2314H35.4987C34.9561 45.2314 34.5162 44.7916 34.5162 44.249V41.3193ZM35.4987 40.8369C35.2323 40.8369 35.0162 41.053 35.0162 41.3193V44.249C35.0162 44.5154 35.2322 44.7314 35.4987 44.7314H45.265C45.5315 44.7314 45.7476 44.5154 45.7476 44.249V41.3193C45.7476 41.0529 45.5316 40.8369 45.265 40.8369H35.4987ZM35.9812 41.8018H44.7826V43.7666H35.9812V41.8018ZM36.4812 42.3018V43.2666H44.2826V42.3018H36.4812Z" fill="#E6514A"/>
<path d="M71.5779 47.8872H65.756V45.1008C65.756 43.8161 64.7108 42.771 63.4261 42.771H57.9129C57.5083 42.771 57.1804 43.0989 57.1804 43.5034C57.1804 43.9079 57.5083 44.2358 57.9129 44.2358H63.4261C63.903 44.2358 64.2911 44.6239 64.2911 45.1008V47.8872H57.9129C57.5083 47.8872 57.1804 48.2151 57.1804 48.6196C57.1804 49.0241 57.5083 49.352 57.9129 49.352H64.2911V50.8163L62.7429 52.3934C62.6085 52.5303 62.5331 52.7145 62.5331 52.9064V57.3986C62.5331 57.8031 62.861 58.1311 63.2656 58.1311H66.7815C67.1861 58.1311 67.5141 57.8031 67.5141 57.3986V52.9064C67.5141 52.7145 67.4387 52.5303 67.3043 52.3934L65.756 50.8163V49.352H71.5779C72.6571 49.352 73.5351 50.2299 73.5351 51.309V62.8514H71.0432C70.6386 62.8514 70.3106 63.1793 70.3106 63.5838C70.3106 63.9883 70.6386 64.3162 71.0432 64.3162H73.5351V66.2463H57.9128C57.5082 66.2463 57.1803 66.5742 57.1803 66.9787C57.1803 67.3832 57.5082 67.7111 57.9128 67.7111H73.5351V68.4221C73.5351 69.5012 72.657 70.379 71.5779 70.379H57.9128C57.5082 70.379 57.1803 70.7069 57.1803 71.1114C57.1803 71.5159 57.5082 71.8438 57.9128 71.8438H67.9155V72.8027C67.9155 74.0144 68.9013 75 70.113 75C71.3247 75 72.3104 74.0144 72.3104 72.8027V71.7649C73.8466 71.4286 75 70.0574 75 68.422V51.309C75 49.4222 73.4648 47.8872 71.5779 47.8872ZM66.0489 56.6662H63.998V53.2059L65.0235 52.1613L66.049 53.2059V56.6662H66.0489ZM70.8454 72.8026C70.8454 73.2065 70.5168 73.5351 70.1129 73.5351C69.709 73.5351 69.3804 73.2065 69.3804 72.8026V71.8437H70.8453V72.8026H70.8454Z" fill="#3035C4"/>
<path fill-rule="evenodd" clip-rule="evenodd" d="M56.9304 43.5034C56.9304 42.9608 57.3702 42.521 57.9129 42.521H63.4261C64.8489 42.521 66.006 43.678 66.006 45.1008V47.6372H71.5779C73.6029 47.6372 75.25 49.2841 75.25 51.309V68.422C75.25 70.1071 74.1096 71.5297 72.5604 71.9604V72.8027C72.5604 74.1524 71.4627 75.25 70.113 75.25C68.7632 75.25 67.6655 74.1524 67.6655 72.8027V72.0938H57.9128C57.3701 72.0938 56.9303 71.654 56.9303 71.1114C56.9303 70.5688 57.3701 70.129 57.9128 70.129H71.5779C72.519 70.129 73.2851 69.3631 73.2851 68.4221V67.9611H57.9128C57.3701 67.9611 56.9303 67.5213 56.9303 66.9787C56.9303 66.4361 57.3701 65.9963 57.9128 65.9963H73.2851V64.5662H71.0432C70.5005 64.5662 70.0606 64.1264 70.0606 63.5838C70.0606 63.0412 70.5005 62.6014 71.0432 62.6014H73.2851V51.309C73.2851 50.368 72.5191 49.602 71.5779 49.602H66.006V50.7141L67.4827 52.2182C67.6629 52.4018 67.7641 52.649 67.7641 52.9064V57.3986C67.7641 57.9412 67.3242 58.3811 66.7815 58.3811H63.2656C62.723 58.3811 62.2831 57.9412 62.2831 57.3986V52.9064C62.2831 52.649 62.3842 52.4019 62.5644 52.2182L64.0411 50.7141V49.602H57.9129C57.3702 49.602 56.9304 49.1622 56.9304 48.6196C56.9304 48.077 57.3702 47.6372 57.9129 47.6372H64.0411V45.1008C64.0411 44.762 63.765 44.4858 63.4261 44.4858H57.9129C57.3702 44.4858 56.9304 44.046 56.9304 43.5034ZM57.9129 43.021C57.6463 43.021 57.4304 43.237 57.4304 43.5034C57.4304 43.7698 57.6463 43.9858 57.9129 43.9858H63.4261C64.0411 43.9858 64.5411 44.4858 64.5411 45.1008V48.1372H57.9129C57.6463 48.1372 57.4304 48.3532 57.4304 48.6196C57.4304 48.886 57.6463 49.102 57.9129 49.102H64.5411V50.9185L62.9213 52.5685C62.8328 52.6587 62.7831 52.7801 62.7831 52.9064V57.3986C62.7831 57.665 62.9991 57.8811 63.2656 57.8811H66.7815C67.0481 57.8811 67.2641 57.665 67.2641 57.3986V52.9064C67.2641 52.7801 67.2144 52.6587 67.1259 52.5685L65.506 50.9185V49.102H71.5779C72.7952 49.102 73.7851 50.0918 73.7851 51.309V63.1014H71.0432C70.7766 63.1014 70.5606 63.3174 70.5606 63.5838C70.5606 63.8502 70.7766 64.0662 71.0432 64.0662H73.7851V66.4963H57.9128C57.6462 66.4963 57.4303 66.7123 57.4303 66.9787C57.4303 67.2451 57.6462 67.4611 57.9128 67.4611H73.7851V68.4221C73.7851 69.6393 72.7951 70.629 71.5779 70.629H57.9128C57.6462 70.629 57.4303 70.845 57.4303 71.1114C57.4303 71.3778 57.6462 71.5938 57.9128 71.5938H68.1655V72.8027C68.1655 73.8763 69.0393 74.75 70.113 74.75C71.1867 74.75 72.0604 73.8763 72.0604 72.8027V71.5638L72.257 71.5207C73.681 71.2089 74.75 69.9373 74.75 68.422V51.309C74.75 49.5603 73.3268 48.1372 71.5779 48.1372H65.506V45.1008C65.506 43.9542 64.5728 43.021 63.4261 43.021H57.9129ZM65.0235 51.8045L66.299 53.1037V56.9162H63.748V53.1037L65.0235 51.8045ZM64.248 53.3081V56.4162H65.799V53.3081L65.0235 52.5182L64.248 53.3081ZM69.1304 71.5937H71.0953V72.5526L71.0954 72.8026C71.0954 73.3447 70.6548 73.7851 70.1129 73.7851C69.5709 73.7851 69.1304 73.3447 69.1304 72.8026V71.5937ZM70.5953 72.8124V72.0937H69.6304V72.8026C69.6304 73.0684 69.847 73.2851 70.1129 73.2851C70.3755 73.2851 70.5901 73.0737 70.5953 72.8124Z" fill="#3035C4"/>
<path d="M57.9128 64.3164H67.6583C68.0629 64.3164 68.3908 63.9885 68.3908 63.584C68.3908 63.1795 68.0629 62.8516 67.6583 62.8516H57.9128C57.5082 62.8516 57.1803 63.1795 57.1803 63.584C57.1803 63.9885 57.5082 64.3164 57.9128 64.3164Z" fill="#3035C4"/>
<path fill-rule="evenodd" clip-rule="evenodd" d="M56.9303 63.584C56.9303 63.0414 57.3701 62.6016 57.9128 62.6016H67.6583C68.2009 62.6016 68.6408 63.0414 68.6408 63.584C68.6408 64.1266 68.2009 64.5664 67.6583 64.5664H57.9128C57.3701 64.5664 56.9303 64.1266 56.9303 63.584ZM57.9128 63.1016C57.6462 63.1016 57.4303 63.3176 57.4303 63.584C57.4303 63.8504 57.6462 64.0664 57.9128 64.0664H67.6583C67.9248 64.0664 68.1408 63.8504 68.1408 63.584C68.1408 63.3176 67.9248 63.1016 67.6583 63.1016H57.9128Z" fill="#3035C4"/>
</g>
<defs>
<clipPath id="clip0_2121_80">
<rect width="50" height="50" fill="white" transform="translate(25 25)"/>
</clipPath>
</defs>
</svg>
