<svg width="100" height="100" viewBox="0 0 100 100" fill="none" xmlns="http://www.w3.org/2000/svg">
<circle opacity="0.6" cx="50" cy="50" r="49" fill="#DEDEFF" fill-opacity="0.4" stroke="#3035C4" stroke-width="2"/>
<g clip-path="url(#clip0_2120_1114)">
<path d="M69.6626 64.8473C70.1985 64.1066 70.5156 63.1978 70.5156 62.2158V56.3477C70.5156 55.8083 70.0783 55.3711 69.5391 55.3711H65.1746C63.157 55.3711 61.5156 57.0125 61.5156 59.0301V62.2158C61.5156 63.1972 61.8323 64.1054 62.3676 64.8458C61.7 64.9541 61.0577 65.168 60.4587 65.4811C59.1019 63.4564 56.8789 62.0602 54.3244 61.8246C54.3145 61.8218 54.3043 61.8197 54.2942 61.8173C55.2082 60.7967 55.7653 59.4502 55.7653 57.9756V50C55.7653 49.4606 55.328 49.0234 54.7888 49.0234H48.8569C46.3082 49.0234 44.2347 51.097 44.2347 53.6457V57.9755C44.2347 59.4501 44.7918 60.7966 45.7058 61.8172C45.6957 61.8196 45.6855 61.8218 45.6756 61.8245C43.1208 62.0601 40.8978 63.4565 39.541 65.4814C38.9418 65.1685 38.2994 64.9544 37.6321 64.8461C38.1675 64.1057 38.4844 63.1973 38.4844 62.2158V56.3477C38.4844 55.8083 38.0471 55.3711 37.5078 55.3711H33.1434C31.1258 55.3711 29.4844 57.0125 29.4844 59.0301V62.2158C29.4844 63.1979 29.8015 64.1066 30.3374 64.8473C27.3146 65.3413 25 67.9701 25 71.1304V74.0234C25 74.5628 25.4373 75 25.9766 75H74.0234C74.5627 75 75 74.5628 75 74.0234V71.1304C75 67.9701 72.6854 65.3413 69.6626 64.8473ZM31.4375 59.0301C31.4375 58.0895 32.2027 57.3242 33.1434 57.3242H36.5312V58.5136C36.5312 59.0968 36.0568 59.5712 35.4737 59.5712H31.4375V59.0301ZM31.4375 61.5242H35.4737C35.8458 61.5242 36.2021 61.456 36.5312 61.3319V62.2158C36.5312 63.6201 35.3888 64.7627 33.9844 64.7627C32.58 64.7627 31.4375 63.6201 31.4375 62.2158V61.5242ZM34.614 66.7158L33.9844 67.3454L33.3548 66.7158H34.614ZM38.1398 70.0914V73.0469H26.9531V71.1304C26.9531 68.94 28.5569 67.118 30.6517 66.7748L33.2938 69.417C33.4771 69.6001 33.7254 69.703 33.9844 69.703C34.2434 69.703 34.4917 69.6001 34.6749 69.417L37.3179 66.7739C37.7847 66.8499 38.2336 67.0004 38.652 67.2205C38.3211 68.1156 38.1398 69.0827 38.1398 70.0914ZM50.0001 61.7878C47.898 61.7878 46.1879 60.0776 46.1879 57.9756V56.6849H52.0242C52.6714 56.6849 53.2808 56.5195 53.8123 56.2291V57.9756C53.8123 60.0776 52.1021 61.7878 50.0001 61.7878ZM51.7023 63.7408L50 65.4432L48.2977 63.7408H51.7023ZM46.1877 53.6457H46.1878C46.1878 52.1739 47.3852 50.9766 48.8569 50.9766H53.8122V52.9438C53.8122 53.9297 53.0101 54.7318 52.0241 54.7318H46.1877V53.6457ZM59.9069 73.0469H58.0078H41.9922H40.0931V71.0938H46.4519C46.9911 71.0938 47.4284 70.6565 47.4284 70.1172C47.4284 69.5778 46.9911 69.1406 46.4519 69.1406H40.1645C40.583 66.3651 42.8047 64.1742 45.594 63.7993L49.3095 67.5147C49.5002 67.7055 49.7501 67.8008 50 67.8008C50.2499 67.8008 50.4998 67.7055 50.6905 67.5147L54.406 63.7993C57.5071 64.2161 59.9069 66.8779 59.9069 70.0914V73.0469ZM63.4688 59.0301C63.4688 58.0895 64.234 57.3242 65.1746 57.3242H68.5625V58.5136C68.5625 59.0968 68.0881 59.5712 67.505 59.5712H63.4688V59.0301ZM63.4688 61.5242H67.505C67.8771 61.5242 68.2333 61.456 68.5625 61.3319V62.2158C68.5625 63.6201 67.42 64.7627 66.0156 64.7627C64.6112 64.7627 63.4688 63.6201 63.4688 62.2158V61.5242ZM66.6452 66.7158L66.0156 67.3454L65.386 66.7158H66.6452ZM61.8601 73.0469V70.0914C61.8601 69.0826 61.6788 68.1155 61.3479 67.2203C61.766 67 62.2148 66.8496 62.6817 66.7737L65.325 69.417C65.5082 69.6001 65.7565 69.703 66.0155 69.703C66.2745 69.703 66.5229 69.6001 66.7061 69.417L69.3482 66.7748C71.443 67.1181 73.0468 68.94 73.0468 71.1304V73.0469H61.8601Z" fill="#3035C4"/>
<path d="M54.8129 31.3807C54.4315 30.9994 53.8133 30.9994 53.4318 31.3807L48.6398 36.1728L46.5682 34.1012C46.1867 33.7198 45.5686 33.7198 45.1871 34.1011C44.8058 34.4825 44.8058 35.1009 45.1871 35.4823L47.9492 38.2444C48.1324 38.4275 48.3808 38.5304 48.6398 38.5304C48.8987 38.5304 49.1471 38.4275 49.3303 38.2444L54.8129 32.7618C55.1943 32.3804 55.1943 31.7621 54.8129 31.3807Z" fill="#E6514A"/>
<path d="M53.993 25.8471C53.5005 25.6275 52.9231 25.8487 52.7034 26.3412C52.4836 26.8338 52.7049 27.4113 53.1975 27.6309C56.0294 28.8939 57.8593 31.7129 57.8593 34.8127C57.8593 39.1463 54.3336 42.672 50 42.672C45.6664 42.672 42.1408 39.1463 42.1408 34.8127C42.1408 31.7289 43.9575 28.9158 46.769 27.6459C47.2605 27.424 47.479 26.8454 47.257 26.3539C47.035 25.8623 46.4562 25.6439 45.9651 25.8659C42.4555 27.451 40.1877 30.9628 40.1877 34.8126C40.1876 40.2233 44.5895 44.6251 50 44.6251C55.4106 44.6251 59.8124 40.2233 59.8124 34.8127C59.8124 30.9429 57.5282 27.4237 53.993 25.8471Z" fill="#E6514A"/>
<path d="M50.035 25H50C49.4607 25 49.0234 25.4372 49.0234 25.9766C49.0234 26.5159 49.4607 26.9531 50 26.9531H50.0258C50.0273 26.9531 50.0288 26.9531 50.0305 26.9531C50.5677 26.9531 51.0044 26.5189 51.0069 25.9812C51.0095 25.4418 50.5743 25.0025 50.035 25Z" fill="#3035C4"/>
<path d="M50.6903 69.4268C50.5088 69.2451 50.2568 69.1406 50 69.1406C49.7432 69.1406 49.4912 69.2451 49.3096 69.4268C49.1279 69.6084 49.0234 69.8604 49.0234 70.1172C49.0234 70.374 49.1278 70.626 49.3096 70.8076C49.4913 70.9893 49.7432 71.0938 50 71.0938C50.2568 71.0938 50.5088 70.9893 50.6903 70.8076C50.872 70.626 50.9766 70.374 50.9766 70.1172C50.9766 69.8604 50.8721 69.6084 50.6903 69.4268Z" fill="#3035C4"/>
</g>
<defs>
<clipPath id="clip0_2120_1114">
<rect width="50" height="50" fill="white" transform="translate(25 25)"/>
</clipPath>
</defs>
</svg>
